<?xml version="1.0" encoding="utf-8"?>
<!-- Generator: Adobe Illustrator 23.0.3, SVG Export Plug-In . SVG Version: 6.00 Build 0)  -->
<svg version="1.1" id="Layer_1" xmlns="http://www.w3.org/2000/svg" xmlns:xlink="http://www.w3.org/1999/xlink" x="0px" y="0px"
	 viewBox="0 0 276 66" style="enable-background:new 0 0 276 66;" xml:space="preserve">
<style type="text/css">
	.st0{fill-rule:evenodd;clip-rule:evenodd;fill:#285791;}
	.st1{fill:#285791;}
</style>
<g>
	<g>
		<g id="Color_Fill_1_3_">
			<g>
				<path class="st0" d="M31.37,26.4c0,2.57,0,5.14,0,7.71c0.74-0.74,1.48-1.48,2.22-2.22c-0.04-1.83-0.09-3.66-0.13-5.49
					c-0.57-0.52-1.13-1.05-1.7-1.57c-0.47-0.28-2.32-0.17-3.4-0.13c-0.57,0.57-1.13,1.13-1.7,1.7c0,0.78,0,1.57,0,2.35
					c0.04,0,0.09,0,0.13,0C27.55,27.09,28.77,26.3,31.37,26.4z M28.63,37.51c1.05,0,2.09,0,3.14,0c0.61-0.57,1.22-1.13,1.83-1.7
					c0-0.78,0-1.57,0-2.35c-0.65,0.74-1.31,1.48-1.96,2.22c-0.91,0.04-1.83,0.09-2.74,0.13c0-2.61,0-5.23,0-7.84
					c-0.74,0.78-1.48,1.57-2.22,2.35c0.04,1.92,0.09,3.83,0.13,5.75C27.41,36.55,28.02,37.03,28.63,37.51z M26.14,24.83
					c-0.78-0.04-1.57-0.09-2.35-0.13c0,1.7,0,3.4,0,5.1c0.78-0.83,1.57-1.66,2.35-2.48C26.14,26.49,26.14,25.66,26.14,24.83z
					 M34.38,30.71c1.72-1.33,2.45-2.77,2.35-6.01c-0.78,0-1.57,0-2.35,0C34.38,26.7,34.38,28.71,34.38,30.71z M41.56,31.89
					c0-2.4,0-4.79,0-7.19c-0.78-0.04-1.57-0.09-2.35-0.13c-0.04,3.18-0.09,6.36-0.13,9.54c0.09,0.04,0.17,0.09,0.26,0.13
					C39.89,33.46,40.68,32.32,41.56,31.89z M36.86,35.94c-0.13-2.09-0.26-4.18-0.39-6.27c-0.74,0.96-1.48,1.92-2.22,2.88
					c-0.07,3.13,0.47,3.54,1.7,5.1c1.22,0.04,2.44,0.09,3.66,0.13c0.67-0.55,1.03-1.41,1.83-1.83c0.04-0.91,0.09-1.83,0.13-2.74
					c-0.83,0.91-1.66,1.83-2.48,2.74C38.34,35.94,37.6,35.94,36.86,35.94z M18.87,33.89c0.91,0.96,1.83,1.92,2.74,2.88
					c0-2.44,0-4.88,0-7.32c-1.18,1.22-2.35,2.44-3.53,3.66C18.35,33.37,18.61,33.63,18.87,33.89z M47.12,33.2
					c-1.18-1.22-2.35-2.44-3.53-3.66c0,2.44,0,4.88,0,7.32c0.91-0.96,1.83-1.92,2.74-2.88C46.6,33.72,46.86,33.46,47.12,33.2z
					 M50.71,19.21c-1.22,0-2.44,0-3.66,0c0,1.44,0,2.88,0,4.31c0.74,0,1.48,0,2.22,0c1.57,1.57,3.14,3.14,4.7,4.7
					c-0.13,0.09-0.26,0.17-0.39,0.26c-0.61,0.65-1.22,1.31-1.83,1.96c0.78,0.78,1.57,1.57,2.35,2.35c0.78-0.78,1.57-1.57,2.35-2.35
					c0.78,0.78,1.57,1.57,2.35,2.35c0,0.09,0,0.17,0,0.26c-0.83,0.83-1.66,1.66-2.48,2.48c-3.18-3.18-6.36-6.36-9.54-9.54
					c0-3.7,0-7.41,0-11.11c-3.83-3.7-7.67-7.41-11.5-11.11c-0.96-0.96-1.92-1.92-2.87-2.88c-4.62,4.62-9.24,9.24-13.85,13.85
					c0,3.79,0,7.58,0,11.37c0,0.04,0,0.09,0,0.13c-3.14,3.09-6.27,6.19-9.41,9.28c-0.83-0.78-1.66-1.57-2.48-2.35
					c0-0.09,0-0.17,0-0.26c0-0.04,0-0.09,0-0.13c0.83-0.78,1.66-1.57,2.48-2.35c0.78,0.78,1.57,1.57,2.35,2.35
					c0.74-0.78,1.48-1.57,2.22-2.35c-0.74-0.74-1.48-1.48-2.22-2.22c1.52-1.57,3.05-3.14,4.57-4.7c0.74,0,1.48,0,2.22,0
					c0-1.52,0-3.05,0-4.57c-1.26,0-2.53,0-3.79,0c-0.04,0-0.09,0-0.13,0c-4.66,4.7-9.32,9.41-13.98,14.11
					c10.67,10.67,21.35,21.35,32.02,32.02c10.67-10.67,21.35-21.35,32.02-32.02C59.86,28.45,55.29,23.83,50.71,19.21z M49.54,42.21
					c-0.59,0.28-1.65,0.3-2.61,0.26c-0.04-0.87-0.09-1.74-0.13-2.61c0.13-0.09,0.26-0.17,0.39-0.26c1.35-1.39,2.7-2.79,4.05-4.18
					c-0.78-0.74-1.57-1.48-2.35-2.22c-2.22,2.22-4.44,4.44-6.67,6.67c0,3.18,0,6.36,0,9.54c0,0.04,0,0.09,0,0.13
					c-1.61,1.57-3.22,3.14-4.84,4.7c-3.88-3.92-7.75-7.84-11.63-11.76c-0.78,0-1.57,0-2.35,0c0,1.52,0,3.05,0,4.57
					c0.78,0.04,1.57,0.09,2.35,0.13c3.14,3.14,6.27,6.27,9.41,9.41c-0.78,0.78-1.57,1.57-2.35,2.35c-0.83-0.78-1.66-1.57-2.48-2.35
					c0.7-0.74,1.39-1.48,2.09-2.22c-0.74-0.74-1.48-1.48-2.22-2.22c-0.35,0.39-0.7,0.78-1.05,1.18c-0.44,0.39-0.87,0.78-1.31,1.18
					c-1.57-1.57-3.14-3.14-4.7-4.7c0-3.22,0-6.45,0-9.67c-1.57-1.66-3.14-3.31-4.7-4.97c-0.65-0.61-1.31-1.22-1.96-1.83
					c-0.78,0.78-1.57,1.57-2.35,2.35c1.48,1.48,2.96,2.96,4.44,4.44c0,0.78,0,1.57,0,2.35c-0.83,0-1.66,0-2.48,0
					c-0.22-0.26-0.44-0.52-0.65-0.78c-1.31-1.31-2.61-2.61-3.92-3.92c3.88-3.88,7.75-7.75,11.63-11.63c0-3.22,0-6.45,0-9.67
					c1.57-1.57,3.14-3.14,4.7-4.7c0.09,0.13,0.17,0.26,0.26,0.39c0.65,0.61,1.31,1.22,1.96,1.83c0.78-0.78,1.57-1.57,2.35-2.35
					c-0.78-0.78-1.57-1.57-2.35-2.35c0.78-0.78,1.57-1.57,2.35-2.35c0.09,0,0.17,0,0.26,0c0.83,0.83,1.66,1.66,2.48,2.48
					c-3.18,3.22-6.36,6.45-9.54,9.67c-0.74-0.04-1.48-0.09-2.22-0.13c0,1.52,0,3.05,0,4.57c0.7,0,1.39,0,2.09,0
					c0.04,0,0.09,0,0.13,0c3.92-3.92,7.84-7.84,11.76-11.76c1.61,1.57,3.22,3.14,4.84,4.7c0,0.04,0,0.09,0,0.13
					c0,3.18,0,6.36,0,9.54c3.88,3.83,7.75,7.67,11.63,11.5C52.41,39.16,50.97,40.69,49.54,42.21z M26.14,28.62
					c-0.78,0.83-1.57,1.66-2.35,2.48c0,2.18,0,4.36,0,6.53c0.74,0,1.48,0,2.22,0C26.06,34.63,26.1,31.63,26.14,28.62z M38.3,17.38
					c-1.05-1-2.09-2-3.14-3.01c-0.7,0.7-1.39,1.39-2.09,2.09c2.27,2.31,4.53,4.62,6.8,6.93c0.7,0,1.39,0,2.09,0
					c0-1.44,0-2.88,0-4.31c-0.7,0-1.39,0-2.09,0C39.34,18.52,38.82,17.95,38.3,17.38z M39.6,42.47c-1.85,2.36-6.48,6.77-6.48,6.77
					s1.05,1.16,2.08,2.14c1.44-1.48,2.82-2.86,4.26-4.34c0.83,0,1.66,0,2.48,0c0-1.52,0-3.05,0-4.57c-0.74,0-1.48,0-2.22,0
					C39.69,42.47,39.65,42.47,39.6,42.47z M36.47,43.98c-2.44,0-4.88,0-7.32,0c1.08,1.26,2.77,2.95,3.5,3.82
					C33.87,46.62,35.25,45.15,36.47,43.98z M41.56,38.42c-5.97,0-11.94,0-17.9,0c0,1.05,0,2.09,0,3.14c5.97,0,11.94,0,17.9,0
					C41.56,40.51,41.56,39.47,41.56,38.42z M33.66,18.89c-0.26-0.26-0.52-0.52-0.78-0.78c-1.22,1.18-2.44,2.35-3.66,3.53
					c2.44,0,4.88,0,7.32,0C35.58,20.72,34.62,19.8,33.66,18.89z"/>
			</g>
		</g>
	</g>
	<g>
		<path class="st1" d="M83.97,29.03h-2.97V13.1h2.97V29.03z"/>
		<path class="st1" d="M100.96,13.1v15.93h-1.52c-0.24,0-0.43-0.04-0.59-0.12c-0.16-0.08-0.31-0.21-0.46-0.39L90.07,17.9
			c0.04,0.48,0.07,0.93,0.07,1.34v9.78h-2.61V13.1h1.55c0.12,0,0.23,0.01,0.32,0.02s0.17,0.03,0.24,0.07
			c0.07,0.03,0.14,0.08,0.2,0.14c0.07,0.06,0.14,0.15,0.22,0.25l8.35,10.67c-0.02-0.26-0.04-0.51-0.06-0.76
			c-0.01-0.25-0.02-0.48-0.02-0.69V13.1H100.96z"/>
		<path class="st1" d="M115.63,15.53h-4.8v13.5h-2.96v-13.5h-4.8V13.1h12.57V15.53z"/>
		<path class="st1" d="M120.7,15.46v4.42h5.58v2.28h-5.58v4.51h7.07v2.37h-10.05V13.1h10.05v2.36H120.7z"/>
		<path class="st1" d="M142.84,29.03h-2.68c-0.51,0-0.87-0.2-1.1-0.6l-3.35-5.1c-0.13-0.19-0.26-0.33-0.41-0.41
			c-0.15-0.08-0.37-0.12-0.67-0.12h-1.27v6.23h-2.96V13.1h4.86c1.08,0,2.01,0.11,2.78,0.34c0.78,0.22,1.41,0.54,1.91,0.94
			c0.5,0.4,0.86,0.89,1.1,1.45c0.23,0.56,0.35,1.18,0.35,1.86c0,0.54-0.08,1.04-0.24,1.52c-0.16,0.48-0.39,0.91-0.68,1.3
			c-0.3,0.39-0.66,0.73-1.1,1.02c-0.44,0.29-0.93,0.53-1.49,0.69c0.19,0.11,0.37,0.24,0.53,0.39c0.16,0.15,0.31,0.33,0.44,0.53
			L142.84,29.03z M135.21,20.68c0.56,0,1.04-0.07,1.46-0.21c0.41-0.14,0.76-0.33,1.02-0.58c0.27-0.25,0.47-0.54,0.6-0.88
			c0.13-0.34,0.2-0.71,0.2-1.11c0-0.81-0.27-1.43-0.8-1.86c-0.53-0.43-1.35-0.65-2.44-0.65h-1.89v5.29H135.21z"/>
		<path class="st1" d="M158,13.1v15.93h-1.52c-0.24,0-0.43-0.04-0.59-0.12c-0.16-0.08-0.31-0.21-0.46-0.39l-8.32-10.62
			c0.04,0.48,0.07,0.93,0.07,1.34v9.78h-2.61V13.1h1.55c0.12,0,0.23,0.01,0.32,0.02c0.09,0.01,0.17,0.03,0.24,0.07
			c0.07,0.03,0.14,0.08,0.2,0.14c0.07,0.06,0.14,0.15,0.22,0.25l8.35,10.67c-0.02-0.26-0.04-0.51-0.06-0.76
			c-0.01-0.25-0.02-0.48-0.02-0.69V13.1H158z"/>
		<path class="st1" d="M175.2,29.03h-2.29c-0.26,0-0.47-0.06-0.63-0.19c-0.16-0.13-0.28-0.29-0.36-0.48l-1.19-3.25h-6.6l-1.19,3.25
			c-0.06,0.17-0.17,0.32-0.34,0.46s-0.38,0.21-0.63,0.21h-2.31l6.27-15.93h3.02L175.2,29.03z M169.96,23.01l-1.94-5.3
			c-0.1-0.24-0.19-0.51-0.3-0.84c-0.1-0.32-0.21-0.67-0.31-1.05c-0.1,0.37-0.19,0.73-0.3,1.05c-0.1,0.33-0.2,0.61-0.3,0.85
			l-1.93,5.28H169.96z"/>
		<path class="st1" d="M186.42,15.53h-4.8v13.5h-2.96v-13.5h-4.8V13.1h12.57V15.53z"/>
		<path class="st1" d="M191.49,29.03h-2.97V13.1h2.97V29.03z"/>
		<path class="st1" d="M210.24,21.06c0,1.17-0.19,2.25-0.58,3.24s-0.93,1.86-1.64,2.58c-0.71,0.73-1.55,1.29-2.55,1.7
			c-0.99,0.41-2.09,0.61-3.31,0.61c-1.2,0-2.3-0.2-3.29-0.61c-0.99-0.41-1.84-0.98-2.55-1.7c-0.71-0.73-1.26-1.59-1.65-2.58
			c-0.39-1-0.58-2.08-0.58-3.24c0-1.17,0.19-2.25,0.58-3.24c0.39-1,0.94-1.86,1.65-2.58c0.71-0.73,1.56-1.29,2.55-1.7
			c0.99-0.41,2.09-0.61,3.29-0.61c0.81,0,1.57,0.09,2.28,0.28c0.71,0.19,1.37,0.45,1.96,0.79c0.59,0.34,1.13,0.76,1.6,1.25
			c0.47,0.49,0.88,1.03,1.21,1.64s0.58,1.26,0.75,1.96C210.16,19.54,210.24,20.29,210.24,21.06z M207.21,21.06
			c0-0.87-0.12-1.66-0.35-2.35c-0.24-0.69-0.57-1.28-1-1.77c-0.43-0.48-0.96-0.86-1.58-1.11c-0.62-0.26-1.32-0.39-2.1-0.39
			s-1.48,0.13-2.1,0.39c-0.62,0.26-1.15,0.63-1.59,1.11c-0.44,0.48-0.77,1.07-1.01,1.77c-0.24,0.69-0.35,1.48-0.35,2.35
			c0,0.87,0.12,1.66,0.35,2.35c0.23,0.69,0.57,1.28,1.01,1.76c0.44,0.48,0.97,0.85,1.59,1.11c0.62,0.26,1.32,0.39,2.1,0.39
			s1.48-0.13,2.1-0.39c0.62-0.26,1.15-0.63,1.58-1.11c0.43-0.48,0.77-1.07,1-1.76C207.1,22.72,207.21,21.94,207.21,21.06z"/>
		<path class="st1" d="M226.29,13.1v15.93h-1.52c-0.24,0-0.43-0.04-0.59-0.12c-0.16-0.08-0.31-0.21-0.46-0.39L215.4,17.9
			c0.04,0.48,0.07,0.93,0.07,1.34v9.78h-2.61V13.1h1.55c0.12,0,0.23,0.01,0.32,0.02c0.09,0.01,0.17,0.03,0.24,0.07
			c0.07,0.03,0.14,0.08,0.2,0.14c0.07,0.06,0.14,0.15,0.22,0.25l8.35,10.67c-0.02-0.26-0.04-0.51-0.06-0.76
			c-0.01-0.25-0.02-0.48-0.02-0.69V13.1H226.29z"/>
		<path class="st1" d="M243.49,29.03h-2.29c-0.26,0-0.47-0.06-0.63-0.19c-0.16-0.13-0.28-0.29-0.36-0.48l-1.19-3.25h-6.6l-1.19,3.25
			c-0.06,0.17-0.17,0.32-0.34,0.46s-0.38,0.21-0.63,0.21h-2.31l6.27-15.93h3.02L243.49,29.03z M238.25,23.01l-1.94-5.3
			c-0.1-0.24-0.19-0.51-0.3-0.84c-0.1-0.32-0.21-0.67-0.31-1.05c-0.1,0.37-0.19,0.73-0.3,1.05c-0.1,0.33-0.2,0.61-0.3,0.85
			l-1.93,5.28H238.25z"/>
		<path class="st1" d="M254.47,26.58v2.45h-9.33V13.1h2.96v13.49H254.47z"/>
		<path class="st1" d="M96.19,44.94c0,1.17-0.19,2.25-0.58,3.24c-0.39,1-0.93,1.86-1.64,2.58c-0.71,0.73-1.55,1.29-2.55,1.7
			c-0.99,0.41-2.09,0.61-3.31,0.61c-1.2,0-2.3-0.2-3.29-0.61c-0.99-0.41-1.84-0.97-2.55-1.7c-0.71-0.73-1.26-1.59-1.65-2.58
			c-0.39-1-0.58-2.08-0.58-3.24c0-1.17,0.19-2.25,0.58-3.24c0.39-1,0.94-1.86,1.65-2.58c0.71-0.73,1.56-1.29,2.55-1.7
			c0.99-0.41,2.09-0.61,3.29-0.61c0.81,0,1.57,0.09,2.28,0.28c0.71,0.19,1.37,0.45,1.96,0.79c0.59,0.34,1.13,0.76,1.6,1.25
			c0.47,0.49,0.88,1.03,1.21,1.64c0.33,0.6,0.58,1.26,0.75,1.96C96.1,43.42,96.19,44.16,96.19,44.94z M93.16,44.94
			c0-0.87-0.12-1.66-0.35-2.35c-0.24-0.69-0.57-1.28-1-1.77c-0.43-0.48-0.96-0.86-1.58-1.11c-0.62-0.26-1.32-0.39-2.1-0.39
			s-1.48,0.13-2.1,0.39c-0.62,0.26-1.15,0.63-1.59,1.11c-0.44,0.48-0.77,1.07-1.01,1.77c-0.24,0.69-0.35,1.48-0.35,2.35
			c0,0.87,0.12,1.66,0.35,2.35c0.23,0.69,0.57,1.28,1.01,1.76s0.97,0.85,1.59,1.11c0.62,0.26,1.32,0.39,2.1,0.39s1.48-0.13,2.1-0.39
			c0.62-0.26,1.15-0.63,1.58-1.11c0.43-0.48,0.77-1.07,1-1.76C93.04,46.59,93.16,45.81,93.16,44.94z"/>
		<path class="st1" d="M103.98,36.97c1.06,0,1.99,0.12,2.77,0.37c0.78,0.25,1.42,0.6,1.93,1.05c0.51,0.45,0.88,0.98,1.13,1.61
			c0.25,0.62,0.37,1.31,0.37,2.05c0,0.77-0.13,1.48-0.39,2.12c-0.26,0.64-0.64,1.2-1.16,1.66c-0.51,0.46-1.16,0.82-1.93,1.08
			s-1.68,0.39-2.72,0.39h-2.21v5.61H98.8V36.97H103.98z M103.98,44.98c0.54,0,1.02-0.07,1.42-0.2c0.4-0.14,0.74-0.33,1.01-0.58
			c0.27-0.25,0.47-0.56,0.6-0.93c0.13-0.36,0.2-0.77,0.2-1.22c0-0.43-0.07-0.81-0.2-1.16c-0.13-0.35-0.33-0.64-0.6-0.88
			s-0.6-0.43-1-0.56c-0.4-0.13-0.88-0.19-1.43-0.19h-2.21v5.72H103.98z"/>
		<path class="st1" d="M115.41,39.33v4.42h5.58v2.28h-5.58v4.51h7.07v2.37h-10.05V36.97h10.05v2.36H115.41z"/>
		<path class="st1" d="M138.54,36.97V52.9h-1.52c-0.24,0-0.43-0.04-0.59-0.12c-0.16-0.08-0.31-0.21-0.46-0.39l-8.32-10.62
			c0.04,0.48,0.07,0.93,0.07,1.34v9.78h-2.61V36.97h1.55c0.12,0,0.23,0.01,0.32,0.02s0.17,0.03,0.24,0.07
			c0.07,0.03,0.14,0.08,0.2,0.14c0.07,0.06,0.14,0.15,0.22,0.25l8.35,10.67c-0.02-0.26-0.04-0.51-0.06-0.76
			c-0.01-0.25-0.02-0.48-0.02-0.69v-9.68H138.54z"/>
		<path class="st1" d="M155.51,50.51c0.57,0,1.09-0.1,1.54-0.29c0.45-0.19,0.83-0.46,1.14-0.8c0.31-0.34,0.55-0.76,0.71-1.26
			c0.17-0.49,0.25-1.04,0.25-1.65v-9.54h2.96v9.54c0,0.95-0.15,1.82-0.46,2.63c-0.3,0.8-0.74,1.5-1.31,2.08
			c-0.57,0.58-1.26,1.04-2.08,1.37c-0.82,0.33-1.73,0.49-2.75,0.49c-1.03,0-1.95-0.16-2.77-0.49c-0.82-0.33-1.51-0.78-2.08-1.37
			c-0.57-0.58-1.01-1.28-1.31-2.08c-0.3-0.8-0.46-1.68-0.46-2.63v-9.54h2.96v9.53c0,0.61,0.08,1.16,0.25,1.65
			c0.17,0.49,0.4,0.91,0.72,1.26c0.31,0.35,0.69,0.62,1.15,0.81C154.42,50.42,154.93,50.51,155.51,50.51z"/>
		<path class="st1" d="M178.89,36.97V52.9h-1.52c-0.24,0-0.43-0.04-0.59-0.12c-0.16-0.08-0.31-0.21-0.46-0.39L168,41.77
			c0.04,0.48,0.07,0.93,0.07,1.34v9.78h-2.61V36.97h1.55c0.12,0,0.23,0.01,0.32,0.02c0.09,0.01,0.17,0.03,0.24,0.07
			c0.07,0.03,0.14,0.08,0.2,0.14c0.07,0.06,0.14,0.15,0.22,0.25l8.35,10.67c-0.02-0.26-0.04-0.51-0.06-0.76
			c-0.01-0.25-0.02-0.48-0.02-0.69v-9.68H178.89z"/>
		<path class="st1" d="M185.41,52.9h-2.97V36.97h2.97V52.9z"/>
		<path class="st1" d="M202.62,36.97l-6.43,15.93h-2.68l-6.43-15.93h2.38c0.26,0,0.47,0.06,0.63,0.19c0.16,0.13,0.28,0.29,0.36,0.48
			l3.76,9.72c0.12,0.32,0.24,0.66,0.36,1.04c0.11,0.38,0.22,0.77,0.32,1.18c0.09-0.41,0.18-0.81,0.29-1.18
			c0.1-0.38,0.22-0.73,0.34-1.04l3.74-9.72c0.06-0.17,0.17-0.32,0.35-0.46c0.17-0.14,0.38-0.21,0.63-0.21H202.62z"/>
		<path class="st1" d="M207.25,39.33v4.42h5.58v2.28h-5.58v4.51h7.07v2.37h-10.05V36.97h10.05v2.36H207.25z"/>
		<path class="st1" d="M229.38,52.9h-2.68c-0.51,0-0.87-0.2-1.1-0.59l-3.35-5.1c-0.13-0.19-0.26-0.33-0.41-0.41
			c-0.15-0.08-0.37-0.12-0.67-0.12h-1.27v6.23h-2.96V36.97h4.86c1.08,0,2.01,0.11,2.78,0.34c0.78,0.22,1.41,0.54,1.91,0.94
			c0.5,0.4,0.86,0.89,1.1,1.45c0.23,0.56,0.35,1.18,0.35,1.86c0,0.54-0.08,1.04-0.24,1.52c-0.16,0.48-0.39,0.91-0.68,1.3
			c-0.3,0.39-0.66,0.73-1.1,1.02c-0.44,0.29-0.93,0.52-1.49,0.69c0.19,0.11,0.37,0.24,0.53,0.39c0.16,0.15,0.31,0.33,0.44,0.53
			L229.38,52.9z M221.76,44.55c0.56,0,1.04-0.07,1.46-0.21c0.41-0.14,0.76-0.33,1.02-0.58c0.27-0.25,0.47-0.54,0.6-0.88
			c0.13-0.34,0.2-0.71,0.2-1.11c0-0.81-0.27-1.43-0.8-1.86c-0.53-0.43-1.35-0.65-2.44-0.65h-1.89v5.29H221.76z"/>
		<path class="st1" d="M239.6,39.87c-0.09,0.15-0.18,0.27-0.28,0.34c-0.1,0.07-0.22,0.1-0.37,0.1c-0.15,0-0.32-0.06-0.5-0.17
			s-0.39-0.24-0.64-0.38c-0.25-0.14-0.54-0.27-0.88-0.38c-0.33-0.11-0.73-0.17-1.18-0.17c-0.41,0-0.77,0.05-1.08,0.15
			c-0.31,0.1-0.57,0.24-0.78,0.41c-0.21,0.18-0.37,0.39-0.47,0.63c-0.1,0.25-0.15,0.52-0.15,0.81c0,0.37,0.1,0.69,0.31,0.94
			c0.21,0.25,0.49,0.46,0.83,0.64c0.35,0.18,0.74,0.33,1.18,0.47c0.44,0.14,0.89,0.29,1.36,0.45c0.46,0.16,0.91,0.34,1.36,0.55
			c0.44,0.21,0.83,0.47,1.18,0.79c0.35,0.32,0.62,0.71,0.83,1.17c0.21,0.46,0.31,1.02,0.31,1.69c0,0.72-0.12,1.39-0.37,2.02
			c-0.25,0.63-0.61,1.18-1.08,1.64c-0.47,0.47-1.05,0.83-1.74,1.1c-0.68,0.27-1.47,0.4-2.35,0.4c-0.51,0-1.01-0.05-1.5-0.15
			c-0.49-0.1-0.96-0.24-1.42-0.42c-0.45-0.18-0.88-0.4-1.27-0.66s-0.75-0.54-1.06-0.86l0.87-1.42c0.07-0.1,0.17-0.19,0.29-0.26
			s0.24-0.1,0.37-0.1c0.18,0,0.38,0.08,0.59,0.23c0.21,0.15,0.47,0.32,0.76,0.5c0.29,0.18,0.64,0.35,1.03,0.5
			c0.39,0.15,0.86,0.23,1.42,0.23c0.84,0,1.5-0.2,1.96-0.6c0.46-0.4,0.69-0.97,0.69-1.72c0-0.42-0.1-0.76-0.31-1.02
			c-0.21-0.26-0.49-0.49-0.83-0.67c-0.35-0.18-0.74-0.33-1.18-0.46c-0.44-0.12-0.89-0.26-1.34-0.41c-0.46-0.15-0.9-0.32-1.34-0.53
			c-0.44-0.21-0.83-0.47-1.18-0.8c-0.35-0.33-0.62-0.74-0.83-1.24c-0.21-0.5-0.31-1.11-0.31-1.83c0-0.58,0.12-1.15,0.35-1.7
			c0.23-0.55,0.57-1.04,1.01-1.47c0.44-0.43,0.98-0.77,1.63-1.02c0.65-0.26,1.39-0.39,2.23-0.39c0.94,0,1.81,0.15,2.6,0.44
			c0.79,0.29,1.47,0.71,2.03,1.23L239.6,39.87z"/>
		<path class="st1" d="M246.17,52.9h-2.97V36.97h2.97V52.9z"/>
		<path class="st1" d="M260.86,39.41h-4.8v13.5h-2.96v-13.5h-4.8v-2.44h12.57V39.41z"/>
		<path class="st1" d="M269.8,46.73v6.17h-2.95v-6.17l-5.81-9.76h2.61c0.26,0,0.46,0.06,0.61,0.19c0.15,0.13,0.28,0.28,0.38,0.47
			l2.91,5.32c0.17,0.32,0.32,0.61,0.45,0.89c0.13,0.28,0.24,0.56,0.35,0.84c0.1-0.28,0.21-0.56,0.33-0.84
			c0.12-0.28,0.27-0.58,0.43-0.89l2.9-5.32c0.08-0.16,0.2-0.31,0.36-0.45c0.16-0.14,0.37-0.21,0.62-0.21h2.62L269.8,46.73z"/>
	</g>
</g>
</svg>
